<?xml version="1.0" standalone="no"?>
<!DOCTYPE svg PUBLIC "-//W3C//DTD SVG 1.1//EN" "http://www.w3.org/Graphics/SVG/1.1/DTD/svg11.dtd" >
<svg xmlns="http://www.w3.org/2000/svg">
<metadata>
This is a custom SVG webfont generated by Font Squirrel.
Copyright   : Copyright c 2009 by Tomas Brousil All rights reserved
Designer    : Tomas Brousil
Foundry     : Tomas Brousil
</metadata>
<defs>
<font id="NudistaMedium" horiz-adv-x="1097" >
<font-face units-per-em="2048" ascent="1638" descent="-410" />
<missing-glyph horiz-adv-x="614" />
<glyph unicode=" "  horiz-adv-x="614" />
<glyph unicode="&#x09;" horiz-adv-x="614" />
<glyph unicode="&#xa0;" horiz-adv-x="614" />
<glyph unicode="!" horiz-adv-x="528" d="M184 0v231h160v-231h-160zM184 399v1035h160v-1035h-160z" />
<glyph unicode="&#x22;" horiz-adv-x="747" d="M143 1434h181l-21 -568h-139zM426 1434h178l-20 -568h-138z" />
<glyph unicode="#" horiz-adv-x="1497" d="M49 408v129h322l114 362h-272v127h313l131 408h142l-131 -408h360l131 408h139l-131 -408h281v-127h-322l-114 -362h272v-129h-313l-131 -408h-140l129 408h-360l-129 -408h-141l131 408h-281zM510 537h360l117 362h-360z" />
<glyph unicode="$" horiz-adv-x="1284" d="M123 412v18h170v-18q0 -139 90 -212t258 -73q350 0 350 258q0 190 -223 233l-276 52q-356 70 -357 381q0 178 109.5 279.5t318.5 117.5v231h160v-229q209 -16 318.5 -123.5t109.5 -304.5v-18h-168v18q0 285 -340 285t-340 -246q0 -193 223 -234l277 -53q358 -68 358 -379 q0 -184 -114.5 -289.5t-323.5 -121.5v-230h-160v232q-211 16 -325.5 123.5t-114.5 302.5z" />
<glyph unicode="%" horiz-adv-x="1687" d="M143 918v280q0 119 72 182.5t197 63.5t196.5 -63.5t71.5 -182.5v-280q0 -119 -71.5 -183.5t-196.5 -64.5t-197 64.5t-72 183.5zM270 918q0 -66 38 -102t104 -36q68 0 105.5 36t37.5 102v280q0 66 -38 101.5t-105 35.5q-66 0 -104 -35.5t-38 -101.5v-280zM279 0l987 1434 h143l-987 -1434h-143zM1008 238v280q0 119 71.5 182.5t196.5 63.5t196.5 -63.5t71.5 -182.5v-280q0 -119 -71.5 -183.5t-196.5 -64.5t-196.5 64.5t-71.5 183.5zM1133 238q0 -66 37.5 -102t105.5 -36q66 0 103.5 36t37.5 102v280q0 66 -38 101.5t-103 35.5 q-68 0 -105.5 -35.5t-37.5 -101.5v-280z" />
<glyph unicode="&#x26;" horiz-adv-x="1331" d="M133 360q0 260 246 361q-225 92 -225 344q0 182 126 285.5t351 103.5t350 -103.5t125 -281.5v-45h-170v29q0 121 -79 187.5t-226 66.5q-145 0 -224 -68t-79 -188q0 -115 75.5 -186.5t212.5 -71.5h715v-148h-225v-645h-127l-27 152q-125 -172 -387 -172q-199 0 -315.5 105 t-116.5 275zM307 381q0 -123 76 -188.5t223.5 -65.5t238.5 78t91 198v242h-324q-139 0 -222 -71.5t-83 -192.5z" />
<glyph unicode="'" horiz-adv-x="466" d="M143 1434h181l-21 -568h-139z" />
<glyph unicode="(" horiz-adv-x="598" d="M113 715q0 557 323 948h162q-326 -408 -326 -948.5t326 -943.5h-162q-323 391 -323 944z" />
<glyph unicode=")" horiz-adv-x="598" d="M0 -229q326 408 326 950q0 539 -326 942h162q324 -389 323 -942q0 -555 -323 -950h-162z" />
<glyph unicode="*" horiz-adv-x="942" d="M61 1206l37 113l328 -123l-14 354h116l-12 -352l328 121l37 -111l-336 -96l217 -274l-94 -68l-197 293l-197 -293l-94 68l215 274z" />
<glyph unicode="+" horiz-adv-x="1048" d="M61 649v137h390v406h145v-406h391v-137h-391v-401h-145v401h-390z" />
<glyph unicode="," horiz-adv-x="466" d="M133 -236l21 488h180l-82 -488h-119z" />
<glyph unicode="-" horiz-adv-x="530" d="M61 455v137h408v-137h-408z" />
<glyph unicode="." horiz-adv-x="466" d="M143 0v252h181v-252h-181z" />
<glyph unicode="/" horiz-adv-x="636" d="M-66 -229l627 1892h141l-626 -1892h-142z" />
<glyph unicode="0" horiz-adv-x="1273" d="M143 436v561q0 219 131.5 338t364.5 119q229 0 360 -118.5t131 -338.5v-561q0 -219 -131 -337.5t-364 -118.5q-229 0 -360.5 118.5t-131.5 337.5zM313 436q0 -147 85 -228t237 -81q154 0 240 81t86 228v561q0 147 -85 228.5t-237 81.5q-154 0 -240 -81t-86 -229v-561z " />
<glyph unicode="1" horiz-adv-x="763" d="M72 991v172l379 271h170v-1434h-170v1262z" />
<glyph unicode="2" horiz-adv-x="1232" d="M143 0v147l635 629q137 133 137 283q0 119 -80.5 183.5t-216.5 64.5q-145 0 -225 -72t-80 -209v-74h-170v74q0 209 125 318.5t350 109.5q213 0 340 -103.5t127 -287.5q0 -205 -190 -385l-530 -531h745v-147h-967z" />
<glyph unicode="3" horiz-adv-x="1232" d="M133 367v55h170v-39q0 -121 81 -188.5t228.5 -67.5t225 70.5t77.5 193.5q0 121 -79.5 187.5t-219.5 66.5h-104v148h104q137 0 213 68.5t76 182.5q0 123 -76.5 193t-220.5 70q-147 0 -226 -66.5t-79 -187.5v-39h-170v55q0 178 125 281.5t350.5 103.5t348 -104.5 t122.5 -288.5q0 -248 -227 -340q238 -84 238 -346q0 -184 -125 -289.5t-352.5 -105.5t-353.5 104.5t-126 282.5z" />
<glyph unicode="4" horiz-adv-x="1150" d="M61 326v147l480 961h178l-486 -961h451v340h168v-340h238v-147h-238v-326h-168v326h-623z" />
<glyph unicode="5" horiz-adv-x="1232" d="M143 393v4h170v-12q0 -123 81 -190.5t222 -67.5q145 0 225.5 82t80.5 248t-79 248.5t-225 82.5q-221 0 -292 -163h-164l63 809h793v-148h-660l-43 -483q129 123 328 123t323 -119t124 -352q0 -229 -125 -352t-349 -123q-221 0 -347 108t-126 305z" />
<glyph unicode="6" horiz-adv-x="1243" d="M143 422v614q0 195 125 306.5t355 111.5q227 0 352 -105.5t125 -285.5v-33h-168v19q0 123 -81 190.5t-228 67.5q-145 0 -227.5 -71t-82.5 -200v-311q121 139 342 139q207 0 326 -117.5t119 -324.5q0 -205 -128 -323.5t-349 -118.5q-223 0 -351.5 118.5t-128.5 323.5z M313 426q0 -139 82 -219t228 -80q143 0 226 80t83 219q0 143 -81 222t-228 79q-145 0 -227.5 -80t-82.5 -221z" />
<glyph unicode="7" horiz-adv-x="1110" d="M72 1286v148h966v-127l-608 -1307h-186l618 1286h-790z" />
<glyph unicode="8" horiz-adv-x="1243" d="M123 379q0 258 235 354q-205 96 -204 334q0 178 123.5 282.5t343.5 104.5q223 0 346 -103.5t123 -283.5q0 -236 -205 -334q115 -45 175 -136t60 -218q0 -184 -130 -293t-367 -109q-240 0 -370 108t-130 294zM293 393q0 -125 86 -195.5t243.5 -70.5t243.5 71.5t86 194.5 q0 125 -87 195.5t-244 70.5q-156 0 -242 -70.5t-86 -195.5zM324 1053q0 -119 78.5 -186.5t220 -67.5t220.5 67.5t79 186t-79 186.5t-222 68q-139 0 -218 -68.5t-79 -185.5z" />
<glyph unicode="9" horiz-adv-x="1243" d="M143 371v32h170v-16q0 -123 81 -191.5t229 -68.5q145 0 227 71.5t82 198.5v314q-121 -139 -342 -140q-207 0 -327 118t-120 325q0 203 128 321.5t352 118.5q221 0 349 -118.5t128 -321.5v-617q0 -195 -124 -306t-353 -111q-227 0 -353.5 105.5t-126.5 285.5zM313 1008 q0 -143 80 -221t230 -78q143 0 226 79.5t83 219t-83 219.5t-226 80q-145 0 -227.5 -80t-82.5 -219z" />
<glyph unicode=":" horiz-adv-x="466" d="M143 0v252h181v-252h-181zM143 815v250h181v-250h-181z" />
<glyph unicode=";" horiz-adv-x="466" d="M133 -236l21 488h180l-82 -488h-119zM143 815v250h181v-250h-181z" />
<glyph unicode="&#x3c;" horiz-adv-x="1048" d="M61 649v139l926 363v-152l-754 -280l754 -279v-153z" />
<glyph unicode="=" horiz-adv-x="1048" d="M61 393v137h926v-137h-926zM61 905v137h926v-137h-926z" />
<glyph unicode="&#x3e;" horiz-adv-x="1048" d="M61 287v153l754 279l-754 280v152l926 -363v-139z" />
<glyph unicode="?" horiz-adv-x="1284" d="M143 1004v49q0 186 133.5 293.5t364.5 107.5t365.5 -107.5t134.5 -293.5q0 -170 -111.5 -275.5t-308.5 -122.5v-256h-160v387h80q160 0 250 72t90 195t-90 193.5t-250 70.5q-158 0 -248 -70.5t-90 -193.5v-49h-160zM561 0v231h160v-231h-160z" />
<glyph unicode="@" horiz-adv-x="2127" d="M102 315q0 334 153 596.5t409 402.5t567 140q371 0 582.5 -196.5t211.5 -536.5q0 -295 -134 -508t-337 -213q-197 0 -245 156q-129 -176 -375 -176q-182 0 -269 111.5t-55 301.5l49 283q33 190 149 289.5t296 99.5q231 0 315 -150l45 129h123l-131 -751 q-14 -74 17.5 -116t95.5 -42q131 0 220 188.5t89 397.5q0 276 -173 438t-474 162q-270 0 -493.5 -123t-355.5 -354.5t-132 -526.5q0 -279 172 -440.5t477 -161.5q244 0 457 109l51 -129q-240 -115 -508 -115q-373 0 -585 196.5t-212 538.5zM766 383q-20 -119 39 -192.5 t176 -73.5q127 0 219 74.5t115 201.5l47 271q20 119 -49.5 191.5t-196.5 72.5q-252 0 -297 -242z" />
<glyph unicode="A" horiz-adv-x="1265" d="M0 0l530 1434h207l529 -1434h-183l-135 369h-645l-135 -369h-168zM348 516h553l-276 737z" />
<glyph unicode="B" horiz-adv-x="1263" d="M143 0v1434h607q193 0 297 -96.5t104 -280.5q0 -236 -180 -330q211 -80 211 -348q0 -186 -104.5 -282.5t-297.5 -96.5h-637zM313 147h439q256 0 256 248q0 250 -254 250h-441v-498zM313 793h408q256 0 256 247q0 246 -254 246h-410v-493z" />
<glyph unicode="C" horiz-adv-x="1325" d="M123 494v446q0 246 146.5 380t406.5 134q250 0 393 -124t143 -349v-8h-170v8q0 154 -97 240t-269 86q-180 0 -281.5 -96.5t-101.5 -270.5v-446q0 -174 101.5 -270.5t279.5 -96.5q172 0 270 87t98 241v6h170v-6q0 -225 -143 -350t-395 -125q-258 0 -404.5 134t-146.5 380z " />
<glyph unicode="D" horiz-adv-x="1345" d="M143 0v1434h516q260 0 406.5 -132.5t146.5 -373.5v-420q0 -244 -147 -376t-410 -132h-512zM313 147h342q182 0 284.5 94.5t102.5 266.5v420q0 172 -101 265t-282 93h-346v-1139z" />
<glyph unicode="E" horiz-adv-x="1150" d="M143 0v1434h926v-148h-756v-493h654v-148h-654v-498h756v-147h-926z" />
<glyph unicode="F" horiz-adv-x="1028" d="M143 0v1434h885v-148h-715v-534h613v-148h-613v-604h-170z" />
<glyph unicode="G" horiz-adv-x="1339" d="M123 494v442q0 252 146.5 385t406.5 133q250 0 393 -114.5t143 -331.5v-15h-170v15q0 141 -97 220t-269 79q-182 0 -282.5 -95.5t-100.5 -275.5v-442q0 -174 101.5 -270.5t279.5 -96.5q172 0 270 87t98 241v127h-450v147h620v-729h-127l-20 150q-133 -170 -420 -170 q-248 0 -385 133t-137 381z" />
<glyph unicode="H" horiz-adv-x="1355" d="M143 0v1434h170v-641h729v641h170v-1434h-170v645h-729v-645h-170z" />
<glyph unicode="I" horiz-adv-x="456" d="M143 0v1434h170v-1434h-170z" />
<glyph unicode="J" horiz-adv-x="1191" d="M41 446v21h170v-21q0 -154 88 -236.5t244 -82.5q160 0 248 83t88 236v988h170v-988q0 -223 -134.5 -344.5t-371.5 -121.5q-236 0 -369 121.5t-133 344.5z" />
<glyph unicode="K" horiz-adv-x="1183" d="M143 0v1434h170v-709l633 709h207l-559 -625l600 -809h-207l-504 678l-170 -189v-489h-170z" />
<glyph unicode="L" horiz-adv-x="1110" d="M143 0v1434h170v-1287h756v-147h-926z" />
<glyph unicode="M" horiz-adv-x="1519" d="M143 0v1434h164l453 -848l452 848h164v-1434h-168v1100l-448 -838l-447 838v-1100h-170z" />
<glyph unicode="N" horiz-adv-x="1355" d="M143 0v1434h160l739 -1123v1123h170v-1434h-159l-740 1124v-1124h-170z" />
<glyph unicode="O" horiz-adv-x="1355" d="M123 494v446q0 246 147.5 380t409.5 134q260 0 406.5 -134t146.5 -380v-446q0 -246 -147.5 -380t-409.5 -134q-258 0 -405.5 134t-147.5 380zM293 494q0 -174 101.5 -270.5t281.5 -96.5q184 0 285.5 96t101.5 271v446q0 174 -101.5 270.5t-281.5 96.5 q-184 0 -285.5 -96.5t-101.5 -270.5v-446z" />
<glyph unicode="P" horiz-adv-x="1202" d="M143 0v1434h539q217 0 338 -111t121 -334q0 -225 -121 -335.5t-338 -110.5h-369v-543h-170zM313 690h365q289 0 289 299q0 152 -77 224.5t-212 72.5h-365v-596z" />
<glyph unicode="Q" horiz-adv-x="1335" d="M123 494v446q0 246 147.5 380t409.5 134q260 0 406.5 -134t146.5 -380v-446q0 -190 -91 -315.5t-257 -172.5l305 -297l-121 -119l-389 390h-4q-258 0 -405.5 134t-147.5 380zM293 494q0 -174 101.5 -270.5t281.5 -96.5q184 0 285.5 96t101.5 271v446q0 174 -101.5 270.5 t-281.5 96.5q-184 0 -285.5 -96.5t-101.5 -270.5v-446z" />
<glyph unicode="R" horiz-adv-x="1273" d="M143 0v1434h570q217 0 337.5 -111t120.5 -334q0 -334 -268 -420l279 -569h-197l-256 543h-416v-543h-170zM313 690h396q289 0 288 299q0 152 -76.5 224.5t-211.5 72.5h-396v-596z" />
<glyph unicode="S" horiz-adv-x="1284" d="M123 412v18h170v-18q0 -139 90 -212t258 -73q346 0 346 258q0 190 -223 233l-272 52q-356 70 -357 381q0 197 132 300t376 103q246 0 377 -108.5t131 -323.5v-18h-168v18q0 285 -340 285q-334 0 -334 -246q0 -193 223 -236l271 -51q358 -68 358 -379q0 -205 -136 -310 t-384 -105q-246 0 -382 109.5t-136 322.5z" />
<glyph unicode="T" horiz-adv-x="1157" d="M20 1286v148h1117v-148h-473v-1286h-170v1286h-474z" />
<glyph unicode="U" horiz-adv-x="1345" d="M139 475v959h168v-959q0 -166 96.5 -257t268.5 -91t269 91t97 257v959h168v-959q0 -238 -141 -366.5t-393 -128.5q-250 0 -391.5 128.5t-141.5 366.5z" />
<glyph unicode="V" horiz-adv-x="1255" d="M0 1434h184l451 -1225l452 1225h168l-528 -1434h-197z" />
<glyph unicode="W" horiz-adv-x="1761" d="M-6 1434h174l315 -1217l318 1217h164l317 -1217l315 1217h168l-385 -1434h-192l-307 1126l-308 -1126h-192z" />
<glyph unicode="X" horiz-adv-x="1232" d="M41 0l477 713l-477 721h203l374 -578l381 578h193l-477 -713l477 -721h-203l-377 578l-379 -578h-192z" />
<glyph unicode="Y" horiz-adv-x="1232" d="M-2 1434h203l417 -715l422 715h193l-533 -885v-549h-168v549z" />
<glyph unicode="Z" horiz-adv-x="1181" d="M72 0v147l837 1139h-837v148h1038v-148l-838 -1139h838v-147h-1038z" />
<glyph unicode="[" horiz-adv-x="608" d="M143 -229v1892h424v-147h-254v-1598h254v-147h-424z" />
<glyph unicode="\" horiz-adv-x="636" d="M-66 1663h142l626 -1892h-139z" />
<glyph unicode="]" horiz-adv-x="608" d="M41 -82h256v1598h-256v147h424v-1892h-424v147z" />
<glyph unicode="^" horiz-adv-x="1042" d="M61 766l377 963h166l377 -963h-168l-295 795l-297 -795h-160z" />
<glyph unicode="_" horiz-adv-x="1044" d="M10 -20h1024v-117h-1024v117z" />
<glyph unicode="`" horiz-adv-x="454" d="M41 1516h166l207 -328h-127z" />
<glyph unicode="a" horiz-adv-x="1083" d="M82 295q0 158 102.5 236.5t284.5 78.5q213 0 317 -104v201q0 111 -66.5 169t-182.5 58q-123 0 -183.5 -48t-60.5 -155h-160q0 334 404 334q190 0 298.5 -93t108.5 -276v-696h-123l-18 111q-102 -131 -336 -131q-180 0 -282.5 78.5t-102.5 236.5zM242 301q0 -184 266 -184 q127 0 202.5 48t75.5 136t-75.5 135t-202.5 47q-266 0 -266 -182z" />
<glyph unicode="b" horiz-adv-x="1124" d="M143 0v1516h160v-582q106 131 311 131q182 0 287 -101.5t105 -289.5v-301q0 -188 -104.5 -290.5t-287.5 -102.5q-221 0 -327 143l-21 -123h-123zM303 373q0 -121 75 -188.5t202 -67.5q125 0 196.5 64.5t71.5 180.5v322q0 117 -70.5 180.5t-195.5 63.5q-129 0 -204 -66.5 t-75 -187.5v-301z" />
<glyph unicode="c" horiz-adv-x="1077" d="M119 375v295q0 190 115.5 292.5t320.5 102.5q199 0 312.5 -97.5t113.5 -273.5v-2h-160v13q0 104 -70.5 163.5t-195.5 59.5q-131 0 -205 -64.5t-74 -183.5v-315q0 -117 74 -182.5t203 -65.5q125 0 196.5 60.5t71.5 164.5v12h160v-2q0 -176 -114.5 -274t-313.5 -98 q-203 0 -318.5 103.5t-115.5 291.5z" />
<glyph unicode="d" horiz-adv-x="1124" d="M119 373v301q0 188 104.5 289.5t286.5 101.5q205 0 311 -125v576h160v-1516h-123l-22 123q-102 -143 -326 -143q-182 0 -286.5 102.5t-104.5 290.5zM276 362q0 -117 72 -181t197 -64q127 0 201.5 67.5t74.5 188.5v301q0 121 -74.5 187.5t-203.5 66.5q-125 0 -196 -63.5 t-71 -180.5v-322z" />
<glyph unicode="e" d="M119 375v299q0 190 115.5 290.5t316.5 100.5q199 0 314.5 -101.5t115.5 -289.5v-197h-705v-112q0 -117 72 -182.5t205 -65.5q125 0 193.5 56t74.5 151h158q-8 -164 -121 -254t-305 -90q-203 0 -318.5 102.5t-115.5 292.5zM276 604h545v80q0 119 -72.5 181.5t-197.5 62.5 q-127 0 -201 -62.5t-74 -181.5v-80z" />
<glyph unicode="f" horiz-adv-x="747" d="M41 907v137h225v93q0 78 7.5 134t25.5 110.5t52 83t87 52.5q45 20 107 20q11 0 22 -1q76 -4 181 -16v-131q-69 9 -122 9q-97 0 -138 -32q-62 -49 -62 -213v-109h322v-137h-322v-907h-160v907h-225z" />
<glyph unicode="g" horiz-adv-x="1124" d="M119 -57h157v-13q0 -104 72 -163.5t197 -59.5q131 0 203.5 64.5t72.5 183.5v195q-106 -129 -311 -130q-182 0 -286.5 102.5t-104.5 291.5v260q0 188 104.5 289.5t286.5 101.5q225 0 328 -143l20 122h123v-1079q0 -190 -115.5 -292.5t-320.5 -102.5q-199 0 -312.5 97 t-113.5 274v2zM276 403q0 -117 72 -181t197 -64q127 0 201.5 67.5t74.5 188.5v260q0 121 -74.5 187.5t-203.5 66.5q-125 0 -196 -63.5t-71 -180.5v-281z" />
<glyph unicode="h" horiz-adv-x="1144" d="M143 0v1516h160v-572q104 121 311 121q184 0 288 -96.5t104 -284.5v-684h-158v694q0 233 -266 234q-127 0 -203 -62.5t-76 -181.5v-684h-160z" />
<glyph unicode="i" horiz-adv-x="446" d="M143 0v1044h160v-1044h-160zM143 1249v232h160v-232h-160z" />
<glyph unicode="j" horiz-adv-x="487" d="M-47 -274q49 -10 87 -10q64 0 95 28q49 45 49 176v1124h160v-1107q0 -211 -83 -302q-54 -58 -167 -58q-62 0 -141 17v132zM184 1249v232h160v-232h-160z" />
<glyph unicode="k" horiz-adv-x="991" d="M143 0v1516h160v-1004l473 532h193l-398 -446l443 -598h-195l-350 475l-166 -182v-293h-160z" />
<glyph unicode="l" horiz-adv-x="446" d="M143 0v1516h160v-1516h-160z" />
<glyph unicode="m" horiz-adv-x="1654" d="M143 0v1044h123l19 -108q92 129 282 129q221 0 301 -162q90 162 306 162q162 0 253 -90t91 -270v-705h-160v707q0 221 -219 221q-102 0 -165 -57.5t-65 -163.5v-707h-157v707q0 221 -220 221q-104 0 -166.5 -59.5t-62.5 -172.5v-696h-160z" />
<glyph unicode="n" horiz-adv-x="1144" d="M143 0v1044h123l21 -118q104 139 327 139q184 0 288 -96.5t104 -284.5v-684h-158v694q0 233 -266 234q-127 0 -203 -62.5t-76 -181.5v-684h-160z" />
<glyph unicode="o" d="M119 373v301q0 190 115.5 290.5t316.5 100.5q199 0 314.5 -101.5t115.5 -289.5v-301q0 -190 -115.5 -291.5t-316.5 -101.5q-199 0 -314.5 101.5t-115.5 291.5zM276 362q0 -121 73 -183t200 -62t199.5 62.5t72.5 182.5v322q0 119 -72.5 181.5t-197.5 62.5 q-127 0 -201 -62.5t-74 -181.5v-322z" />
<glyph unicode="p" horiz-adv-x="1124" d="M143 -410v1454h123l21 -122q109 143 327 143q182 0 287 -101.5t105 -289.5v-301q0 -188 -104.5 -290.5t-287.5 -102.5q-207 0 -311 118v-508h-160zM303 373q0 -121 75 -188.5t202 -67.5q125 0 196.5 64.5t71.5 180.5v322q0 117 -70.5 180.5t-195.5 63.5 q-129 0 -204 -66.5t-75 -187.5v-301z" />
<glyph unicode="q" horiz-adv-x="1124" d="M119 373v301q0 188 104.5 289.5t286.5 101.5q225 0 328 -143l20 122h123v-1454h-160v519q-106 -129 -311 -129q-182 0 -286.5 102.5t-104.5 290.5zM276 362q0 -117 72 -181t197 -64q127 0 201.5 67.5t74.5 188.5v301q0 121 -74.5 187.5t-203.5 66.5q-125 0 -196 -63.5 t-71 -180.5v-322z" />
<glyph unicode="r" horiz-adv-x="727" d="M143 0v1044h123l23 -131q68 92 183 129q65 21 131 21q51 0 104 -12v-144q-61 11 -115 11q-103 0 -177 -41q-112 -63 -112 -193v-684h-160z" />
<glyph unicode="s" horiz-adv-x="1067" d="M109 299v16h157v-12q0 -190 269 -190q266 0 266 170q0 125 -168 155l-217 43q-287 57 -287 287q0 297 408 297q403 0 403 -317v-17h-160v10q0 193 -243 193q-250 0 -250 -162q0 -125 166 -158l219 -43q289 -57 289 -284q0 -152 -112 -229.5t-314.5 -77.5t-314 80.5 t-111.5 238.5z" />
<glyph unicode="t" horiz-adv-x="808" d="M41 907v137h205v349l160 47v-396h321v-137h-321v-538q0 -164 62 -213q42 -33 143 -33q51 0 116 8v-131q-104 -12 -180 -16q-11 -1 -22 -1q-62 0 -107 20q-53 24 -87 52.5t-52.5 83t-25.5 110.5t-7 134v524h-205z" />
<glyph unicode="u" horiz-adv-x="1144" d="M139 362v682h160v-692q0 -236 266 -235q127 0 203 63.5t76 181.5v682h157v-1044h-122l-21 119q-104 -139 -328 -139q-184 0 -287.5 96t-103.5 286z" />
<glyph unicode="v" horiz-adv-x="1087" d="M41 1044h170l338 -866l338 866h160l-408 -1044h-190z" />
<glyph unicode="w" horiz-adv-x="1613" d="M41 1044h164l266 -849l262 849h158l262 -849l266 849h154l-332 -1044h-178l-256 805l-256 -805h-178z" />
<glyph unicode="x" horiz-adv-x="1028" d="M41 0l381 518l-381 526h188l289 -403l291 403h178l-381 -518l381 -526h-188l-289 403l-291 -403h-178z" />
<glyph unicode="y" horiz-adv-x="1087" d="M41 1044h170l338 -868l338 868h160l-570 -1454h-170l162 410h-20z" />
<glyph unicode="z" horiz-adv-x="995" d="M82 0v137l635 770h-635v137h831v-137l-634 -770h634v-137h-831z" />
<glyph unicode="{" horiz-adv-x="690" d="M0 643v148h66q74 0 116.5 46t42.5 119v402q0 137 84 221t219 84h121v-147h-90q-76 0 -121 -44.5t-45 -119.5v-357q0 -100 -46 -172.5t-128 -105.5q80 -31 127 -104.5t47 -172.5v-356q0 -76 45 -121t121 -45h90v-147h-121q-135 0 -219 84t-84 221v403q0 74 -43 119 t-116 45h-66z" />
<glyph unicode="|" horiz-adv-x="430" d="M143 -276v1986h144v-1986h-144z" />
<glyph unicode="}" horiz-adv-x="690" d="M41 -82h90q76 0 121 45t45 121v356q0 98 47 172t127 105q-82 33 -128 105.5t-46 172.5v357q0 76 -45 120t-121 44h-90v147h121q135 0 219 -84t84 -221v-402q0 -76 43 -120.5t117 -44.5h65v-148h-65q-74 0 -117 -45t-43 -119v-403q0 -137 -84 -221t-219 -84h-121v147z" />
<glyph unicode="~" horiz-adv-x="1048" d="M86 670q109 190 242 190q78 0 209 -80t182 -80q78 0 158 125l88 -55q-109 -190 -242 -190q-78 0 -214 79.5t-187 79.5q-68 0 -148 -125z" />
<glyph unicode="&#xa1;" horiz-adv-x="528" d="M184 -389v1034h160v-1034h-160zM184 815v229h160v-229h-160z" />
<glyph unicode="&#xa2;" horiz-adv-x="1118" d="M102 743v316q0 170 100.5 270.5t282.5 118.5v231h158v-231q176 -18 274.5 -113.5t98.5 -251.5v-2h-158v13q0 104 -78 163.5t-215 59.5q-143 0 -223 -64.5t-80 -183.5v-336q0 -119 80 -183.5t221 -64.5q137 0 216 60.5t79 165.5v12h158v-2q0 -158 -98.5 -253t-274.5 -112 v-233h-158v233q-180 16 -281.5 116.5t-101.5 270.5z" />
<glyph unicode="&#xa3;" horiz-adv-x="1286" d="M61 0v147h222v500h-222v127h222v281q0 193 119.5 296t330.5 103q203 0 320.5 -99.5t117.5 -277.5v-73h-170v73q0 106 -71.5 168t-196.5 62q-133 0 -206.5 -66.5t-73.5 -185.5v-281h430v-127h-430v-500h731v-147h-1123z" />
<glyph unicode="&#xa4;" horiz-adv-x="1304" d="M20 188l203 203q-102 137 -102 328q0 188 104 330l-196 198l96 96l197 -198q135 106 329 106q193 0 328 -106l207 207l98 -97l-207 -206q106 -139 107 -330q0 -195 -107 -330l199 -196l-96 -97l-199 197q-141 -104 -330 -105q-199 0 -329 107l-203 -203zM279 719 q0 -174 104 -283.5t268 -109.5t268.5 109.5t104.5 283.5t-104.5 284.5t-268.5 110.5t-268 -110.5t-104 -284.5z" />
<glyph unicode="&#xa5;" horiz-adv-x="1253" d="M10 1434h201l418 -715l422 715h192l-459 -760h314v-127h-387v-547h-168v547h-387v127h311z" />
<glyph unicode="&#xa6;" horiz-adv-x="430" d="M143 -276v749h144v-749h-144zM143 961v749h144v-749h-144z" />
<glyph unicode="&#xa7;" horiz-adv-x="1271" d="M123 526q0 176 125 285q-125 86 -125 260q0 182 133 282.5t377 100.5q246 0 377 -108.5t131 -323.5v-18h-170v18q0 285 -338 285q-166 0 -251 -58.5t-85 -167.5q0 -94 54.5 -136t168.5 -62l273 -52q178 -33 267 -111.5t89 -221.5q0 -172 -125 -285q125 -86 125 -260 q0 -182 -133 -282.5t-375 -100.5q-246 0 -377 108.5t-131 323.5v18h168v-18q0 -285 340 -285q164 0 249 59.5t85 166.5q0 94 -54.5 136t-168.5 64l-271 52q-180 33 -269 110.5t-89 220.5zM297 553q0 -92 56.5 -137t168.5 -68l273 -51q39 -8 96 -23q84 80 84 197 q0 92 -56.5 137t-168.5 68l-271 51q-66 12 -98 23q-84 -82 -84 -197z" />
<glyph unicode="&#xa8;" horiz-adv-x="661" d="M41 1239v221h139v-221h-139zM461 1239v221h139v-221h-139z" />
<glyph unicode="&#xa9;" horiz-adv-x="1802" d="M164 717q0 336 200.5 536.5t536.5 200.5t536.5 -200.5t200.5 -536.5t-200.5 -536.5t-536.5 -200.5t-536.5 200.5t-200.5 536.5zM276 717q0 -289 171 -462t454 -173q285 0 455 173t170 462q0 291 -170 464t-455 173q-283 0 -454 -173t-171 -464zM557 590v256q0 147 92 227 t256 80q158 0 249 -76t91 -213v-16h-112v16q0 92 -59.5 141.5t-168.5 49.5q-236 0 -235 -209v-256q0 -102 60.5 -155.5t172.5 -53.5q109 0 169.5 49t60.5 141v27h112v-27q0 -137 -91 -213.5t-251 -76.5q-162 0 -254 81t-92 228z" />
<glyph unicode="&#xaa;" horiz-adv-x="737" d="M92 972.5q0 98.5 62.5 150t171.5 51.5q127 0 192 -70v123q0 125 -135 125q-131 0 -131 -111h-127q0 213 260 213q121 0 190.5 -60.5t69.5 -174.5v-435h-96l-21 72q-61 -84 -202 -84q-109 0 -171.5 51t-62.5 149.5zM219 976.5q0 -102.5 148 -102.5q66 0 106.5 25t44.5 68 v18q-4 45 -45 69.5t-106 24.5q-148 0 -148 -102.5z" />
<glyph unicode="&#xab;" horiz-adv-x="892" d="M41 463v139l424 328v-162l-287 -236l287 -231v-166zM408 463v139l423 328v-162l-288 -236l288 -231v-166z" />
<glyph unicode="&#xac;" horiz-adv-x="1048" d="M61 649v137h926v-538h-143v401h-783z" />
<glyph unicode="&#xad;" horiz-adv-x="530" d="M61 455v137h408v-137h-408z" />
<glyph unicode="&#xae;" horiz-adv-x="749" d="M61 1120.5q0 143.5 85 228.5t228.5 85t228.5 -85t85 -228.5t-85 -228.5t-228.5 -85t-228.5 85t-85 228.5zM115 1120q0 -121 70.5 -192.5t189.5 -71.5t189.5 71.5t70.5 192.5t-70.5 193.5t-189.5 72.5t-189.5 -72.5t-70.5 -193.5zM244 940v360h153q117 0 117 -112 q0 -90 -72 -111l70 -137h-68l-65 131h-76v-131h-59zM303 1124h92q59 0 59.5 61.5t-59.5 61.5h-92v-123z" />
<glyph unicode="&#xaf;" horiz-adv-x="638" d="M41 1268v116h557v-116h-557z" />
<glyph unicode="&#xb0;" horiz-adv-x="661" d="M51 1176q0 123 78 200.5t203 77.5q123 0 200.5 -78t77.5 -200q0 -125 -77.5 -203t-200.5 -78q-125 0 -203 78t-78 203zM158 1175.5q0 -77.5 48 -126t126 -48.5t125 48.5t47 126t-48 126t-124 48.5q-78 0 -126 -48.5t-48 -126z" />
<glyph unicode="&#xb1;" horiz-adv-x="1048" d="M61 0v137h926v-137h-926zM61 711v137h390v405h145v-405h391v-137h-391v-402h-145v402h-390z" />
<glyph unicode="&#xb2;" horiz-adv-x="792" d="M143 680v111l324 305q66 61 65 129q0 51 -34.5 80.5t-94.5 29.5q-61 0 -97 -31.5t-36 -93.5v-32h-127v32q0 113 69 173.5t189 60.5q117 0 186.5 -56.5t69.5 -154.5q0 -129 -118 -221l-232 -221h359v-111h-523z" />
<glyph unicode="&#xb3;" horiz-adv-x="796" d="M133 879v36h123v-22q0 -53 36 -83t99.5 -30t98 31t34.5 84q0 55 -34.5 86t-100.5 31h-41v92h41q63 0 97 31.5t34 85t-34.5 84t-96.5 30.5q-63 0 -98 -30.5t-35 -83.5v-21h-123v35q0 96 68.5 152.5t191.5 56.5t189.5 -56.5t66.5 -152.5q0 -131 -125 -176q129 -45 129 -180 q0 -96 -67.5 -152.5t-190.5 -56.5q-125 0 -193.5 56.5t-68.5 152.5z" />
<glyph unicode="&#xb4;" horiz-adv-x="454" d="M41 1188l207 328h168l-246 -328h-129z" />
<glyph unicode="&#xb5;" horiz-adv-x="1148" d="M143 -410v1454h160v-692q0 -236 266 -235q127 0 203 63.5t76 181.5v682h158v-1044h-123l-21 121q-104 -141 -327 -141q-137 0 -232 53v-443h-160z" />
<glyph unicode="&#x3bc;" horiz-adv-x="1148" d="M143 -410v1454h160v-692q0 -236 266 -235q127 0 203 63.5t76 181.5v682h158v-1044h-123l-21 121q-104 -141 -327 -141q-137 0 -232 53v-443h-160z" />
<glyph unicode="&#xb6;" horiz-adv-x="1077" d="M61 1102q0 168 91.5 250t253.5 82h528v-1434h-150v1286h-127v-1286h-149v766h-102q-164 0 -254.5 83t-90.5 253z" />
<glyph unicode="&#xb7;" horiz-adv-x="466" d="M143 592v252h181v-252h-181z" />
<glyph unicode="&#xb8;" horiz-adv-x="440" d="M41 -184l25 92q154 20 243.5 -20t89.5 -138q0 -100 -90 -140t-243 -18l-25 95q106 -14 163.5 0t57.5 65t-57.5 64.5t-163.5 -0.5z" />
<glyph unicode="&#xb9;" horiz-adv-x="534" d="M72 1167v127l192 140h127v-754h-127v627z" />
<glyph unicode="&#xba;" horiz-adv-x="737" d="M92 1024v178q0 123 75 187.5t202 64.5q129 0 202.5 -64.5t73.5 -187.5v-178q0 -123 -73.5 -187.5t-202.5 -64.5q-127 0 -202 64.5t-75 187.5zM219 1018q0 -66 40 -100.5t109.5 -34.5t109.5 34.5t40 100.5v190q0 66 -40 100.5t-109.5 34.5t-109.5 -34.5t-40 -100.5v-190z " />
<glyph unicode="&#xbb;" horiz-adv-x="892" d="M61 135v164l289 233l-289 234v164l424 -328v-139zM428 135v164l287 233l-287 234v164l424 -328v-139z" />
<glyph unicode="&#xbc;" horiz-adv-x="1585" d="M104 1167v125l193 142h127v-754h-127v625zM221 0l987 1434h142l-988 -1434h-141zM932 156v108l235 490h131l-241 -490h207v162h120v-162h107v-108h-107v-156h-120v156h-332z" />
<glyph unicode="&#xbd;" horiz-adv-x="1632" d="M104 1167v125l193 142h127v-754h-127v625zM221 0l987 1434h142l-988 -1434h-141zM989 2v109l324 305q66 66 65 131q0 51 -35.5 79.5t-95.5 28.5q-61 0 -97 -31.5t-36 -93.5v-30h-125v30q0 115 68.5 175.5t189.5 60.5q117 0 186.5 -57.5t69.5 -155.5q0 -125 -121 -221 l-229 -221h356v-109h-520z" />
<glyph unicode="&#xbe;" horiz-adv-x="1660" d="M133 879v36h123v-22q0 -53 36 -83t99.5 -30t98 31t34.5 84q0 55 -34.5 86t-100.5 31h-41v92h41q63 0 97 31.5t34 85t-34.5 84t-96.5 30.5q-63 0 -98 -30.5t-35 -83.5v-21h-123v35q0 96 68.5 152.5t191.5 56.5t189.5 -56.5t66.5 -152.5q0 -131 -125 -176q129 -45 129 -180 q0 -96 -67.5 -152.5t-190.5 -56.5q-125 0 -193.5 56.5t-68.5 152.5zM297 0l987 1434h141l-987 -1434h-141zM1018 156v108l235 490h131l-241 -490h196v162h121v-162h107v-108h-107v-156h-121v156h-321z" />
<glyph unicode="&#xbf;" horiz-adv-x="1284" d="M143 14q0 170 112 274.5t308 121.5v256h160v-387h-80q-160 0 -250 -71t-90 -194q0 -125 90 -195.5t250 -70.5q158 0 248 70.5t90 195.5v47h160v-47q0 -186 -133.5 -294.5t-364.5 -108.5t-365.5 108.5t-134.5 294.5zM563 836v229h160v-229h-160z" />
<glyph unicode="&#xc0;" horiz-adv-x="1265" d="M0 0l530 1434h207l529 -1434h-183l-135 369h-645l-135 -369h-168zM348 516h553l-276 737zM391 1812h176l187 -296h-138z" />
<glyph unicode="&#xc1;" horiz-adv-x="1265" d="M0 0l530 1434h207l529 -1434h-183l-135 369h-645l-135 -369h-168zM348 516h553l-276 737zM512 1516l188 296h177l-226 -296h-139z" />
<glyph unicode="&#xc2;" horiz-adv-x="1265" d="M0 0l530 1434h207l529 -1434h-183l-135 369h-645l-135 -369h-168zM313 1516l232 296h176l231 -296h-149l-172 202l-172 -202h-146zM348 516h553l-276 737z" />
<glyph unicode="&#xc3;" horiz-adv-x="1265" d="M0 0l530 1434h207l529 -1434h-183l-135 369h-645l-135 -369h-168zM256 1604q104 203 225 202q68 0 172.5 -76.5t137.5 -76.5q51 0 129 137l88 -53q-102 -203 -222 -203q-70 0 -174 76t-135 76q-57 0 -131 -136zM348 516h553l-276 737z" />
<glyph unicode="&#xc4;" horiz-adv-x="1265" d="M0 0l530 1434h207l529 -1434h-183l-135 369h-645l-135 -369h-168zM324 1552v220h139v-220h-139zM348 516h553l-276 737zM805 1552v220h139v-220h-139z" />
<glyph unicode="&#xc5;" horiz-adv-x="1265" d="M0 0l530 1434h207l529 -1434h-183l-135 369h-645l-135 -369h-168zM348 516h553l-276 737zM426 1667q0 88 57.5 142.5t149.5 54.5t150.5 -54.5t58.5 -142.5t-58.5 -142.5t-150.5 -54.5t-149.5 54.5t-57.5 142.5zM528 1667q0 -53 28 -83t77 -30t76.5 30t27.5 83t-27.5 83 t-76.5 30t-77 -30t-28 -83z" />
<glyph unicode="&#xc6;" horiz-adv-x="2084" d="M0 0l983 1434h1020v-148h-756v-493h654v-148h-654v-498h756v-147h-926v369h-631l-256 -369h-190zM526 516h551v782z" />
<glyph unicode="&#xc7;" horiz-adv-x="1325" d="M123 494v446q0 246 146.5 380t406.5 134q250 0 393 -124t143 -349v-8h-170v8q0 154 -97 240t-269 86q-180 0 -281.5 -96.5t-101.5 -270.5v-446q0 -174 101.5 -270.5t279.5 -96.5q172 0 270 87t98 241v6h170v-6q0 -225 -143 -350t-395 -125q-258 0 -404.5 134t-146.5 380z M504 -184l24 92q154 20 244 -20t90 -138q0 -100 -90 -140t-244 -18l-24 95q106 -14 163.5 0t57.5 65t-57.5 64.5t-163.5 -0.5z" />
<glyph unicode="&#xc8;" horiz-adv-x="1150" d="M143 0v1434h926v-148h-756v-493h654v-148h-654v-498h756v-147h-926zM332 1812h176l186 -296h-137z" />
<glyph unicode="&#xc9;" horiz-adv-x="1150" d="M143 0v1434h926v-148h-756v-493h654v-148h-654v-498h756v-147h-926zM455 1516l188 296h176l-225 -296h-139z" />
<glyph unicode="&#xca;" horiz-adv-x="1150" d="M143 0v1434h926v-148h-756v-493h654v-148h-654v-498h756v-147h-926zM256 1516l231 296h177l231 -296h-150l-172 202l-172 -202h-145z" />
<glyph unicode="&#xcb;" horiz-adv-x="1150" d="M143 0v1434h926v-148h-756v-493h654v-148h-654v-498h756v-147h-926zM264 1552v220h139v-220h-139zM745 1552v220h140v-220h-140z" />
<glyph unicode="&#xcc;" horiz-adv-x="456" d="M-55 1812h176l186 -296h-137zM143 0v1434h170v-1434h-170z" />
<glyph unicode="&#xcd;" horiz-adv-x="456" d="M143 0v1434h170v-1434h-170zM147 1516l189 296h176l-225 -296h-140z" />
<glyph unicode="&#xce;" horiz-adv-x="456" d="M-90 1516l231 296h176l232 -296h-150l-172 202l-172 -202h-145zM143 0v1434h170v-1434h-170z" />
<glyph unicode="&#xcf;" horiz-adv-x="456" d="M-41 1552v220h139v-220h-139zM143 0v1434h170v-1434h-170zM358 1552v220h140v-220h-140z" />
<glyph unicode="&#xd0;" horiz-adv-x="1345" d="M0 659v117h143v658h516q260 0 406.5 -132.5t146.5 -373.5v-420q0 -244 -147 -376t-410 -132h-512v659h-143zM313 147h342q182 0 284.5 94.5t102.5 266.5v420q0 172 -101 265t-282 93h-346v-510h305v-117h-305v-512z" />
<glyph unicode="&#xd1;" horiz-adv-x="1355" d="M143 0v1434h160l739 -1123v1123h170v-1434h-159l-740 1124v-1124h-170zM301 1604q104 203 225 202q68 0 172.5 -76.5t137.5 -76.5q51 0 129 137l88 -53q-102 -203 -222 -203q-70 0 -174 76t-135 76q-57 0 -131 -136z" />
<glyph unicode="&#xd2;" horiz-adv-x="1355" d="M123 494v446q0 246 147.5 380t409.5 134q260 0 406.5 -134t146.5 -380v-446q0 -246 -147.5 -380t-409.5 -134q-258 0 -405.5 134t-147.5 380zM293 494q0 -174 101.5 -270.5t281.5 -96.5q184 0 285.5 96t101.5 271v446q0 174 -101.5 270.5t-281.5 96.5 q-184 0 -285.5 -96.5t-101.5 -270.5v-446zM424 1812h176l186 -296h-137z" />
<glyph unicode="&#xd3;" horiz-adv-x="1355" d="M123 494v446q0 246 147.5 380t409.5 134q260 0 406.5 -134t146.5 -380v-446q0 -246 -147.5 -380t-409.5 -134q-258 0 -405.5 134t-147.5 380zM293 494q0 -174 101.5 -270.5t281.5 -96.5q184 0 285.5 96t101.5 271v446q0 174 -101.5 270.5t-281.5 96.5 q-184 0 -285.5 -96.5t-101.5 -270.5v-446zM547 1516l188 296h176l-225 -296h-139z" />
<glyph unicode="&#xd4;" horiz-adv-x="1355" d="M123 494v446q0 246 147.5 380t409.5 134q260 0 406.5 -134t146.5 -380v-446q0 -246 -147.5 -380t-409.5 -134q-258 0 -405.5 134t-147.5 380zM293 494q0 -174 101.5 -270.5t281.5 -96.5q184 0 285.5 96t101.5 271v446q0 174 -101.5 270.5t-281.5 96.5 q-184 0 -285.5 -96.5t-101.5 -270.5v-446zM348 1516l232 296h176l231 -296h-149l-172 202l-172 -202h-146z" />
<glyph unicode="&#xd5;" horiz-adv-x="1355" d="M123 494v446q0 246 147.5 380t409.5 134q260 0 406.5 -134t146.5 -380v-446q0 -246 -147.5 -380t-409.5 -134q-258 0 -405.5 134t-147.5 380zM293 494q0 -174 101.5 -270.5t281.5 -96.5q184 0 285.5 96t101.5 271v446q0 174 -101.5 270.5t-281.5 96.5 q-184 0 -285.5 -96.5t-101.5 -270.5v-446zM301 1604q104 203 225 202q68 0 172.5 -76.5t137.5 -76.5q51 0 129 137l88 -53q-102 -203 -222 -203q-70 0 -174 76t-135 76q-57 0 -131 -136z" />
<glyph unicode="&#xd6;" horiz-adv-x="1355" d="M123 494v446q0 246 147.5 380t409.5 134q260 0 406.5 -134t146.5 -380v-446q0 -246 -147.5 -380t-409.5 -134q-258 0 -405.5 134t-147.5 380zM293 494q0 -174 101.5 -270.5t281.5 -96.5q184 0 285.5 96t101.5 271v446q0 174 -101.5 270.5t-281.5 96.5 q-184 0 -285.5 -96.5t-101.5 -270.5v-446zM356 1552v220h140v-220h-140zM838 1552v220h139v-220h-139z" />
<glyph unicode="&#xd7;" horiz-adv-x="1048" d="M96 393l328 328l-320 321l97 97l321 -322l330 330l98 -96l-332 -332l324 -322l-96 -96l-324 322l-327 -326z" />
<glyph unicode="&#xd8;" horiz-adv-x="1355" d="M121 -121l139 242q-137 137 -137 373v446q0 246 147.5 380t409.5 134q182 0 311 -68l133 232l109 -64l-139 -241q139 -139 139 -373v-446q0 -246 -147.5 -380t-409.5 -134q-184 0 -314 67l-133 -231zM293 494q0 -127 57 -218l561 973q-96 57 -231 58q-184 0 -285.5 -96.5 t-101.5 -270.5v-446zM442 184q90 -57 234 -57q184 0 285.5 96t101.5 271v446q0 131 -59 219z" />
<glyph unicode="&#xd9;" horiz-adv-x="1345" d="M139 475v959h168v-959q0 -166 96.5 -257t268.5 -91t269 91t97 257v959h168v-959q0 -238 -141 -366.5t-393 -128.5q-250 0 -391.5 128.5t-141.5 366.5zM430 1812h176l187 -296h-138z" />
<glyph unicode="&#xda;" horiz-adv-x="1345" d="M139 475v959h168v-959q0 -166 96.5 -257t268.5 -91t269 91t97 257v959h168v-959q0 -238 -141 -366.5t-393 -128.5q-250 0 -391.5 128.5t-141.5 366.5zM551 1516l188 296h176l-225 -296h-139z" />
<glyph unicode="&#xdb;" horiz-adv-x="1345" d="M139 475v959h168v-959q0 -166 96.5 -257t268.5 -91t269 91t97 257v959h168v-959q0 -238 -141 -366.5t-393 -128.5q-250 0 -391.5 128.5t-141.5 366.5zM352 1516l232 296h176l231 -296h-149l-172 202l-172 -202h-146z" />
<glyph unicode="&#xdc;" horiz-adv-x="1345" d="M139 475v959h168v-959q0 -166 96.5 -257t268.5 -91t269 91t97 257v959h168v-959q0 -238 -141 -366.5t-393 -128.5q-250 0 -391.5 128.5t-141.5 366.5zM362 1552v220h140v-220h-140zM844 1552v220h139v-220h-139z" />
<glyph unicode="&#xdd;" horiz-adv-x="1232" d="M-2 1434h203l417 -715l422 715h193l-533 -885v-549h-168v549zM496 1516l188 296h176l-225 -296h-139z" />
<glyph unicode="&#xde;" horiz-adv-x="1202" d="M143 0v1434h170v-271h369q217 0 338 -110.5t121 -335.5q0 -223 -122 -335t-337 -112h-369v-270h-170zM313 418h365q137 0 213 73.5t76 225.5q0 299 -289 299h-365v-598z" />
<glyph unicode="&#xdf;" horiz-adv-x="1302" d="M143 0v1126q0 186 137.5 298t362.5 112q223 0 357.5 -103.5t134.5 -275.5q0 -231 -213 -330q137 -49 212.5 -158.5t75.5 -267.5q0 -201 -109.5 -311t-297.5 -110q-174 0 -267.5 96t-93.5 260v16h148v-6q0 -104 59.5 -166.5t151.5 -62.5q121 0 186.5 78.5t65.5 216.5 q0 158 -102.5 247t-276.5 91h-39v137h20q145 4 232.5 72.5t87.5 183.5q0 117 -89 186.5t-243 69.5t-247 -78t-93 -209v-1112h-160z" />
<glyph unicode="&#xe0;" horiz-adv-x="1083" d="M82 295q0 158 102.5 236.5t284.5 78.5q213 0 317 -104v201q0 111 -66.5 169t-182.5 58q-123 0 -183.5 -48t-60.5 -155h-160q0 334 404 334q190 0 298.5 -93t108.5 -276v-696h-123l-18 111q-102 -131 -336 -131q-180 0 -282.5 78.5t-102.5 236.5zM242 301q0 -184 266 -184 q127 0 202.5 48t75.5 136t-75.5 135t-202.5 47q-266 0 -266 -182zM270 1516h166l207 -328h-127z" />
<glyph unicode="&#xe1;" horiz-adv-x="1083" d="M82 295q0 158 102.5 236.5t284.5 78.5q213 0 317 -104v201q0 111 -66.5 169t-182.5 58q-123 0 -183.5 -48t-60.5 -155h-160q0 334 404 334q190 0 298.5 -93t108.5 -276v-696h-123l-18 111q-102 -131 -336 -131q-180 0 -282.5 78.5t-102.5 236.5zM242 301q0 -184 266 -184 q127 0 202.5 48t75.5 136t-75.5 135t-202.5 47q-266 0 -266 -182zM434 1188l207 328h168l-246 -328h-129z" />
<glyph unicode="&#xe2;" horiz-adv-x="1083" d="M82 295q0 158 102.5 236.5t284.5 78.5q213 0 317 -104v201q0 111 -66.5 169t-182.5 58q-123 0 -183.5 -48t-60.5 -155h-160q0 334 404 334q190 0 298.5 -93t108.5 -276v-696h-123l-18 111q-102 -131 -336 -131q-180 0 -282.5 78.5t-102.5 236.5zM240 1188l221 328h155 l222 -328h-148l-153 217l-154 -217h-143zM242 301q0 -184 266 -184q127 0 202.5 48t75.5 136t-75.5 135t-202.5 47q-266 0 -266 -182z" />
<glyph unicode="&#xe3;" horiz-adv-x="1083" d="M82 295q0 158 102.5 236.5t284.5 78.5q213 0 317 -104v201q0 111 -66.5 169t-182.5 58q-123 0 -183.5 -48t-60.5 -155h-160q0 334 404 334q190 0 298.5 -93t108.5 -276v-696h-123l-18 111q-102 -131 -336 -131q-180 0 -282.5 78.5t-102.5 236.5zM190 1307 q104 203 220 202q53 0 105 -37.5t94 -76.5t69 -39q47 0 125 137l88 -53q-100 -203 -219 -203q-53 0 -104.5 38t-93.5 76t-71 38q-49 0 -122 -136zM242 301q0 -184 266 -184q127 0 202.5 48t75.5 136t-75.5 135t-202.5 47q-266 0 -266 -182z" />
<glyph unicode="&#xe4;" horiz-adv-x="1083" d="M82 295q0 158 102.5 236.5t284.5 78.5q213 0 317 -104v201q0 111 -66.5 169t-182.5 58q-123 0 -183.5 -48t-60.5 -155h-160q0 334 404 334q190 0 298.5 -93t108.5 -276v-696h-123l-18 111q-102 -131 -336 -131q-180 0 -282.5 78.5t-102.5 236.5zM242 301q0 -184 266 -184 q127 0 202.5 48t75.5 136t-75.5 135t-202.5 47q-266 0 -266 -182zM258 1239v221h139v-221h-139zM678 1239v221h139v-221h-139z" />
<glyph unicode="&#xe5;" horiz-adv-x="1083" d="M82 295q0 158 102.5 236.5t284.5 78.5q213 0 317 -104v201q0 111 -66.5 169t-182.5 58q-123 0 -183.5 -48t-60.5 -155h-160q0 334 404 334q190 0 298.5 -93t108.5 -276v-696h-123l-18 111q-102 -131 -336 -131q-180 0 -282.5 78.5t-102.5 236.5zM242 301q0 -184 266 -184 q127 0 202.5 48t75.5 136t-75.5 135t-202.5 47q-266 0 -266 -182zM330 1339q0 88 57 142.5t149.5 54.5t150.5 -54.5t58 -142.5t-58 -142t-150.5 -54t-149.5 54t-57 142zM432 1339.5q0 -53.5 27.5 -83t77 -29.5t77 29.5t27.5 83t-27.5 83t-77 29.5t-77 -29.5t-27.5 -83z" />
<glyph unicode="&#xe6;" horiz-adv-x="1765" d="M82 295q0 158 102.5 236.5t284.5 78.5q211 0 317 -100v197q0 111 -66.5 169t-182.5 58q-123 0 -183.5 -48t-60.5 -155h-160q0 334 404 334q250 0 335 -170q102 170 361 170q193 0 304.5 -101.5t111.5 -289.5v-197h-705v-112q0 -117 74 -182.5t203 -65.5q125 0 193.5 56 t74.5 151h158q-8 -164 -118 -254t-292 -90q-264 0 -369 176q-98 -176 -391 -176q-186 0 -290.5 78.5t-104.5 236.5zM242 301q0 -184 266 -184q127 0 202.5 48t75.5 136t-75.5 135t-202.5 47q-266 0 -266 -182zM944 604h545v80q0 119 -73 181.5t-197 62.5q-127 0 -201 -62.5 t-74 -181.5v-80z" />
<glyph unicode="&#xe7;" horiz-adv-x="1077" d="M119 375v295q0 190 115.5 292.5t320.5 102.5q199 0 312.5 -97.5t113.5 -273.5v-2h-160v13q0 104 -70.5 163.5t-195.5 59.5q-131 0 -205 -64.5t-74 -183.5v-315q0 -117 74 -182.5t203 -65.5q125 0 196.5 60.5t71.5 164.5v12h160v-2q0 -176 -114.5 -274t-313.5 -98 q-203 0 -318.5 103.5t-115.5 291.5zM385 -184l25 92q154 20 243.5 -20t89.5 -138q0 -100 -90 -140t-243 -18l-25 95q106 -14 163.5 0t57.5 65t-57.5 64.5t-163.5 -0.5z" />
<glyph unicode="&#xe8;" d="M119 375v299q0 190 115.5 290.5t316.5 100.5q199 0 314.5 -101.5t115.5 -289.5v-197h-705v-112q0 -117 72 -182.5t205 -65.5q125 0 193.5 56t74.5 151h158q-8 -164 -121 -254t-305 -90q-203 0 -318.5 102.5t-115.5 292.5zM276 604h545v80q0 119 -72.5 181.5t-197.5 62.5 q-127 0 -201 -62.5t-74 -181.5v-80zM281 1516h165l207 -328h-127z" />
<glyph unicode="&#xe9;" d="M119 375v299q0 190 115.5 290.5t316.5 100.5q199 0 314.5 -101.5t115.5 -289.5v-197h-705v-112q0 -117 72 -182.5t205 -65.5q125 0 193.5 56t74.5 151h158q-8 -164 -121 -254t-305 -90q-203 0 -318.5 102.5t-115.5 292.5zM276 604h545v80q0 119 -72.5 181.5t-197.5 62.5 q-127 0 -201 -62.5t-74 -181.5v-80zM444 1188l207 328h168l-246 -328h-129z" />
<glyph unicode="&#xea;" d="M119 375v299q0 190 115.5 290.5t316.5 100.5q199 0 314.5 -101.5t115.5 -289.5v-197h-705v-112q0 -117 72 -182.5t205 -65.5q125 0 193.5 56t74.5 151h158q-8 -164 -121 -254t-305 -90q-203 0 -318.5 102.5t-115.5 292.5zM250 1188l221 328h156l221 -328h-148l-153 217 l-154 -217h-143zM276 604h545v80q0 119 -72.5 181.5t-197.5 62.5q-127 0 -201 -62.5t-74 -181.5v-80z" />
<glyph unicode="&#xeb;" d="M119 375v299q0 190 115.5 290.5t316.5 100.5q199 0 314.5 -101.5t115.5 -289.5v-197h-705v-112q0 -117 72 -182.5t205 -65.5q125 0 193.5 56t74.5 151h158q-8 -164 -121 -254t-305 -90q-203 0 -318.5 102.5t-115.5 292.5zM268 1239v221h140v-221h-140zM276 604h545v80 q0 119 -72.5 181.5t-197.5 62.5q-127 0 -201 -62.5t-74 -181.5v-80zM688 1239v221h139v-221h-139z" />
<glyph unicode="&#xec;" horiz-adv-x="446" d="M-66 1516h166l207 -328h-127zM143 0v1044h160v-1044h-160z" />
<glyph unicode="&#xed;" horiz-adv-x="446" d="M139 1188l207 328h168l-246 -328h-129zM143 0v1044h160v-1044h-160z" />
<glyph unicode="&#xee;" horiz-adv-x="446" d="M-74 1188l221 328h156l221 -328h-147l-154 217l-153 -217h-144zM143 0v1044h160v-1044h-160z" />
<glyph unicode="&#xef;" horiz-adv-x="446" d="M-14 1239v221h139v-221h-139zM143 0v1044h160v-1044h-160zM324 1239v221h139v-221h-139z" />
<glyph unicode="&#xf0;" d="M119 373v219q0 188 105.5 289.5t281.5 101.5q152 0 256 -70q-66 170 -195 295l-260 -116l-39 98l211 94q-100 78 -241 133l49 119q188 -70 331 -188l244 110l39 -100l-201 -90q281 -293 281 -754v-141q0 -190 -115.5 -291.5t-316.5 -101.5q-199 0 -314.5 101.5 t-115.5 291.5zM276 362q0 -121 73 -183t200 -62t199.5 62.5t72.5 182.5v213q0 270 -270 271q-127 0 -201 -62.5t-74 -181.5v-240z" />
<glyph unicode="&#xf1;" horiz-adv-x="1144" d="M143 0v1044h123l21 -118q104 139 327 139q184 0 288 -96.5t104 -284.5v-684h-158v694q0 233 -266 234q-127 0 -203 -62.5t-76 -181.5v-684h-160zM223 1307q104 203 219 202q53 0 105.5 -37.5t94.5 -76.5t69 -39q47 0 125 137l88 -53q-100 -203 -219 -203q-53 0 -104.5 38 t-93.5 76t-71 38q-49 0 -123 -136z" />
<glyph unicode="&#xf2;" d="M119 373v301q0 190 115.5 290.5t316.5 100.5q199 0 314.5 -101.5t115.5 -289.5v-301q0 -190 -115.5 -291.5t-316.5 -101.5q-199 0 -314.5 101.5t-115.5 291.5zM276 362q0 -121 73 -183t200 -62t199.5 62.5t72.5 182.5v322q0 119 -72.5 181.5t-197.5 62.5 q-127 0 -201 -62.5t-74 -181.5v-322zM281 1516h165l207 -328h-127z" />
<glyph unicode="&#xf3;" d="M119 373v301q0 190 115.5 290.5t316.5 100.5q199 0 314.5 -101.5t115.5 -289.5v-301q0 -190 -115.5 -291.5t-316.5 -101.5q-199 0 -314.5 101.5t-115.5 291.5zM276 362q0 -121 73 -183t200 -62t199.5 62.5t72.5 182.5v322q0 119 -72.5 181.5t-197.5 62.5 q-127 0 -201 -62.5t-74 -181.5v-322zM444 1188l207 328h168l-246 -328h-129z" />
<glyph unicode="&#xf4;" d="M119 373v301q0 190 115.5 290.5t316.5 100.5q199 0 314.5 -101.5t115.5 -289.5v-301q0 -190 -115.5 -291.5t-316.5 -101.5q-199 0 -314.5 101.5t-115.5 291.5zM250 1188l221 328h156l221 -328h-148l-153 217l-154 -217h-143zM276 362q0 -121 73 -183t200 -62t199.5 62.5 t72.5 182.5v322q0 119 -72.5 181.5t-197.5 62.5q-127 0 -201 -62.5t-74 -181.5v-322z" />
<glyph unicode="&#xf5;" d="M119 373v301q0 190 115.5 290.5t316.5 100.5q199 0 314.5 -101.5t115.5 -289.5v-301q0 -190 -115.5 -291.5t-316.5 -101.5q-199 0 -314.5 101.5t-115.5 291.5zM199 1307q104 203 219 202q53 0 105 -37.5t94 -76.5t69 -39q47 0 125 137l88 -53q-100 -203 -219 -203 q-53 0 -104.5 38t-93.5 76t-70 38q-49 0 -123 -136zM276 362q0 -121 73 -183t200 -62t199.5 62.5t72.5 182.5v322q0 119 -72.5 181.5t-197.5 62.5q-127 0 -201 -62.5t-74 -181.5v-322z" />
<glyph unicode="&#xf6;" d="M119 373v301q0 190 115.5 290.5t316.5 100.5q199 0 314.5 -101.5t115.5 -289.5v-301q0 -190 -115.5 -291.5t-316.5 -101.5q-199 0 -314.5 101.5t-115.5 291.5zM268 1239v221h140v-221h-140zM276 362q0 -121 73 -183t200 -62t199.5 62.5t72.5 182.5v322q0 119 -72.5 181.5 t-197.5 62.5q-127 0 -201 -62.5t-74 -181.5v-322zM688 1239v221h139v-221h-139z" />
<glyph unicode="&#xf7;" horiz-adv-x="1048" d="M61 649v137h926v-137h-926zM436 135v252h178v-252h-178zM436 1051v249h178v-249h-178z" />
<glyph unicode="&#xf8;" d="M119 373v301q0 190 115.5 290.5t316.5 100.5q125 0 225 -45l96 168l93 -53l-99 -172q115 -102 115 -289v-301q0 -190 -115.5 -291.5t-316.5 -101.5q-123 0 -225 43l-97 -166l-92 53l98 170q-114 103 -114 293zM276 362q0 -88 37 -143l389 676q-59 33 -151 33 q-127 0 -201 -62.5t-74 -181.5v-322zM395 147q61 -31 154 -30q127 0 199.5 62.5t72.5 182.5v322q0 84 -37 139z" />
<glyph unicode="&#xf9;" horiz-adv-x="1144" d="M139 362v682h160v-692q0 -236 266 -235q127 0 203 63.5t76 181.5v682h157v-1044h-122l-21 119q-104 -139 -328 -139q-184 0 -287.5 96t-103.5 286zM342 1516h166l207 -328h-127z" />
<glyph unicode="&#xfa;" horiz-adv-x="1144" d="M139 362v682h160v-692q0 -236 266 -235q127 0 203 63.5t76 181.5v682h157v-1044h-122l-21 119q-104 -139 -328 -139q-184 0 -287.5 96t-103.5 286zM424 1188l207 328h168l-246 -328h-129z" />
<glyph unicode="&#xfb;" horiz-adv-x="1144" d="M139 362v682h160v-692q0 -236 266 -235q127 0 203 63.5t76 181.5v682h157v-1044h-122l-21 119q-104 -139 -328 -139q-184 0 -287.5 96t-103.5 286zM270 1188l222 328h155l221 -328h-147l-154 217l-153 -217h-144z" />
<glyph unicode="&#xfc;" horiz-adv-x="1144" d="M139 362v682h160v-692q0 -236 266 -235q127 0 203 63.5t76 181.5v682h157v-1044h-122l-21 119q-104 -139 -328 -139q-184 0 -287.5 96t-103.5 286zM289 1239v221h139v-221h-139zM709 1239v221h139v-221h-139z" />
<glyph unicode="&#xfd;" horiz-adv-x="1087" d="M41 1044h170l338 -868l338 868h160l-570 -1454h-170l162 410h-20zM438 1188l207 328h168l-246 -328h-129z" />
<glyph unicode="&#xfe;" horiz-adv-x="1124" d="M143 -410v1926h160v-576q106 125 311 125q182 0 287 -101.5t105 -289.5v-301q0 -188 -104.5 -290.5t-287.5 -102.5q-207 0 -311 118v-508h-160zM303 373q0 -121 75 -188.5t202 -67.5q125 0 196.5 64.5t71.5 180.5v322q0 117 -70.5 180.5t-195.5 63.5q-129 0 -204 -66.5 t-75 -187.5v-301z" />
<glyph unicode="&#xff;" horiz-adv-x="1087" d="M41 1044h170l338 -868l338 868h160l-570 -1454h-170l162 410h-20zM262 1239v221h139v-221h-139zM682 1239v221h139v-221h-139z" />
<glyph unicode="&#x152;" horiz-adv-x="2091" d="M123 494v446q0 246 146.5 380t398.5 134q254 0 395 -147v127h926v-148h-756v-493h653v-148h-653v-498h756v-147h-926v127q-141 -147 -397 -147q-250 0 -396.5 135t-146.5 379zM293 494q0 -174 101.5 -270.5t281.5 -96.5q184 0 285.5 96t101.5 271v446q0 174 -101.5 270.5 t-281.5 96.5q-184 0 -285.5 -96.5t-101.5 -270.5v-446z" />
<glyph unicode="&#x153;" horiz-adv-x="1802" d="M119 373v301q0 190 113.5 290.5t310.5 100.5q252 0 358 -160q104 160 361 160q195 0 308 -100.5t113 -290.5v-197h-702v-112q0 -117 72.5 -182.5t203.5 -65.5q125 0 193 56t74 151h159q-10 -164 -120.5 -254t-296.5 -90q-254 0 -365 159q-104 -160 -360 -159 q-195 0 -308.5 101.5t-113.5 291.5zM276 362q0 -121 73 -183t200 -62t199.5 62.5t72.5 182.5v322q0 119 -72.5 181.5t-197.5 62.5q-127 0 -201 -62.5t-74 -181.5v-322zM981 604h545v80q0 119 -73 181.5t-200 62.5t-199.5 -62.5t-72.5 -181.5v-80z" />
<glyph unicode="&#x178;" horiz-adv-x="1232" d="M-2 1434h203l417 -715l422 715h193l-533 -885v-549h-168v549zM305 1552v220h139v-220h-139zM786 1552v220h140v-220h-140z" />
<glyph unicode="&#x2c6;" horiz-adv-x="679" d="M41 1188l221 328h156l221 -328h-147l-154 217l-154 -217h-143z" />
<glyph unicode="&#x2dc;" horiz-adv-x="782" d="M41 1307q104 203 219 202q53 0 105.5 -37.5t94.5 -76.5t68 -39q47 0 125 137l88 -53q-57 -113 -109 -158t-110 -45q-53 0 -104 38t-93 76t-71 38q-49 0 -123 -136z" />
<glyph unicode="&#x2000;" horiz-adv-x="931" />
<glyph unicode="&#x2001;" horiz-adv-x="1863" />
<glyph unicode="&#x2002;" horiz-adv-x="931" />
<glyph unicode="&#x2003;" horiz-adv-x="1863" />
<glyph unicode="&#x2004;" horiz-adv-x="620" />
<glyph unicode="&#x2005;" horiz-adv-x="464" />
<glyph unicode="&#x2006;" horiz-adv-x="309" />
<glyph unicode="&#x2007;" horiz-adv-x="309" />
<glyph unicode="&#x2008;" horiz-adv-x="231" />
<glyph unicode="&#x2009;" horiz-adv-x="372" />
<glyph unicode="&#x200a;" horiz-adv-x="102" />
<glyph unicode="&#x2010;" horiz-adv-x="530" d="M61 455v137h408v-137h-408z" />
<glyph unicode="&#x2011;" horiz-adv-x="530" d="M61 455v137h408v-137h-408z" />
<glyph unicode="&#x2012;" horiz-adv-x="530" d="M61 455v137h408v-137h-408z" />
<glyph unicode="&#x2013;" horiz-adv-x="1044" d="M10 455v137h1024v-137h-1024z" />
<glyph unicode="&#x2014;" horiz-adv-x="2068" d="M10 455v137h2048v-137h-2048z" />
<glyph unicode="&#x2018;" horiz-adv-x="466" d="M143 1147l62 487h119v-487h-181z" />
<glyph unicode="&#x2019;" horiz-adv-x="466" d="M143 1147v487h181l-62 -487h-119z" />
<glyph unicode="&#x201a;" horiz-adv-x="466" d="M143 -236v488h181l-62 -488h-119z" />
<glyph unicode="&#x201c;" horiz-adv-x="747" d="M143 1147l62 487h119v-487h-181zM426 1147l61 487h117v-487h-178z" />
<glyph unicode="&#x201d;" horiz-adv-x="747" d="M143 1147v487h181l-62 -487h-119zM426 1147v487h178l-61 -487h-117z" />
<glyph unicode="&#x201e;" horiz-adv-x="747" d="M143 -236v488h181l-62 -488h-119zM426 -236v488h178l-61 -488h-117z" />
<glyph unicode="&#x2022;" horiz-adv-x="622" d="M72 716.5q0 106.5 66.5 173t173 66.5t173 -66.5t66.5 -173t-66.5 -173t-173 -66.5t-173 66.5t-66.5 173z" />
<glyph unicode="&#x2026;" horiz-adv-x="1767" d="M143 0v252h181v-252h-181zM795 0v252h178v-252h-178zM1444 0v252h180v-252h-180z" />
<glyph unicode="&#x202f;" horiz-adv-x="372" />
<glyph unicode="&#x2039;" horiz-adv-x="526" d="M41 463v139l424 328v-162l-287 -236l287 -231v-166z" />
<glyph unicode="&#x203a;" horiz-adv-x="526" d="M51 135v164l289 233l-289 234v164l424 -328v-139z" />
<glyph unicode="&#x205f;" horiz-adv-x="464" />
<glyph unicode="&#x20ac;" horiz-adv-x="1404" d="M61 653v127h144v160q0 246 146.5 380t404.5 134q250 0 393 -125t143 -350v-6h-168v6q0 154 -98 241t-270 87q-180 0 -281.5 -96.5t-101.5 -270.5v-160h475v-127h-475v-159q0 -174 102.5 -270.5t278.5 -96.5q174 0 272 86t98 240v8h168v-8q0 -223 -143 -348t-395 -125 q-258 0 -403.5 134t-145.5 380v159h-144z" />
<glyph unicode="&#x2122;" horiz-adv-x="1208" d="M51 1335v99h469v-99h-178v-438h-111v438h-180zM578 897v537h102l158 -271l155 271h103v-537h-105v354l-153 -266l-154 266v-354h-106z" />
<glyph unicode="&#xe000;" horiz-adv-x="1045" d="M0 1045h1045v-1045h-1045v1045z" />
<glyph unicode="&#xfb01;" horiz-adv-x="1234" d="M41 907v137h225v93q0 78 7.5 134t25.5 110.5t52 83t87.5 52t129 19.5t180.5 -16v-131q-197 27 -259.5 -22.5t-62.5 -213.5v-109h666v-1044h-160v907h-506v-907h-160v907h-225zM932 1219v231h160v-231h-160z" />
<glyph unicode="&#xfb02;" horiz-adv-x="1234" d="M41 907v137h225v91q0 100 16.5 166.5t64.5 125t145.5 87t248.5 28.5q133 0 351 -29v-1513h-160v1393q-100 12 -195 12q-180 0 -245.5 -59.5t-65.5 -194.5v-107h322v-137h-322v-907h-160v907h-225z" />
<glyph unicode="&#xfb03;" horiz-adv-x="1941" d="M1638 0v1044h160v-1044h-160zM1638 1249v232h160v-232h-160zM789 907v137h225v93q0 78 7.5 134t25.5 110.5t52 83t87 52.5q45 20 107 20q11 0 22 -1q76 -4 181 -16v-131q-69 9 -122 9q-97 0 -138 -32q-62 -49 -62 -213v-109h322v-137h-322v-907h-160v907h-225zM41 907 v137h225v93q0 78 7.5 134t25.5 110.5t52 83t87 52.5q45 20 107 20q11 0 22 -1q76 -4 181 -16v-131q-69 9 -122 9q-97 0 -138 -32q-62 -49 -62 -213v-109h322v-137h-322v-907h-160v907h-225z" />
<glyph unicode="&#xfb04;" horiz-adv-x="1941" d="M1638 0v1516h160v-1516h-160zM789 907v137h225v93q0 78 7.5 134t25.5 110.5t52 83t87 52.5q45 20 107 20q11 0 22 -1q76 -4 181 -16v-131q-69 9 -122 9q-97 0 -138 -32q-62 -49 -62 -213v-109h322v-137h-322v-907h-160v907h-225zM41 907v137h225v93q0 78 7.5 134 t25.5 110.5t52 83t87 52.5q45 20 107 20q11 0 22 -1q76 -4 181 -16v-131q-69 9 -122 9q-97 0 -138 -32q-62 -49 -62 -213v-109h322v-137h-322v-907h-160v907h-225z" />
<glyph horiz-adv-x="0" />
</font>
</defs>
</svg>
